<mxfile host="Electron" agent="Mozilla/5.0 (Windows NT 10.0; Win64; x64) AppleWebKit/537.36 (KHTML, like Gecko) draw.io/26.2.2 Chrome/134.0.6998.178 Electron/35.1.2 Safari/537.36" version="26.2.2">
  <diagram name="Page-1" id="T8QM85uM6ChCfzzmoe71">
    <mxGraphModel dx="1426" dy="-319" grid="1" gridSize="10" guides="1" tooltips="1" connect="1" arrows="1" fold="1" page="1" pageScale="1" pageWidth="827" pageHeight="1169" math="0" shadow="0">
      <root>
        <mxCell id="0" />
        <mxCell id="1" parent="0" />
        <mxCell id="JNLqS4MpjRsyl0XClgtZ-1" style="edgeStyle=orthogonalEdgeStyle;rounded=0;orthogonalLoop=1;jettySize=auto;html=1;startArrow=diamondThin;startFill=0;endArrow=none;startSize=10;" parent="1" source="JNLqS4MpjRsyl0XClgtZ-4" target="JNLqS4MpjRsyl0XClgtZ-8" edge="1">
          <mxGeometry relative="1" as="geometry" />
        </mxCell>
        <mxCell id="JNLqS4MpjRsyl0XClgtZ-2" style="edgeStyle=orthogonalEdgeStyle;rounded=0;orthogonalLoop=1;jettySize=auto;html=1;startSize=16;" parent="1" source="JNLqS4MpjRsyl0XClgtZ-4" target="JNLqS4MpjRsyl0XClgtZ-6" edge="1">
          <mxGeometry relative="1" as="geometry" />
        </mxCell>
        <mxCell id="JNLqS4MpjRsyl0XClgtZ-3" style="edgeStyle=orthogonalEdgeStyle;rounded=0;orthogonalLoop=1;jettySize=auto;html=1;" parent="1" source="JNLqS4MpjRsyl0XClgtZ-4" target="JNLqS4MpjRsyl0XClgtZ-20" edge="1">
          <mxGeometry relative="1" as="geometry" />
        </mxCell>
        <mxCell id="JNLqS4MpjRsyl0XClgtZ-4" value="Digitálny model legislatívy" style="rounded=0;whiteSpace=wrap;html=1;" parent="1" vertex="1">
          <mxGeometry x="320" y="1520" width="120" height="60" as="geometry" />
        </mxCell>
        <mxCell id="JNLqS4MpjRsyl0XClgtZ-5" style="edgeStyle=orthogonalEdgeStyle;rounded=0;orthogonalLoop=1;jettySize=auto;html=1;exitX=0.5;exitY=0;exitDx=0;exitDy=0;entryX=0.5;entryY=0;entryDx=0;entryDy=0;" parent="1" source="JNLqS4MpjRsyl0XClgtZ-6" target="JNLqS4MpjRsyl0XClgtZ-20" edge="1">
          <mxGeometry relative="1" as="geometry">
            <mxPoint x="500" y="1459" as="sourcePoint" />
            <mxPoint x="230" y="1459" as="targetPoint" />
            <Array as="points">
              <mxPoint x="580" y="1480" />
              <mxPoint x="190" y="1480" />
            </Array>
          </mxGeometry>
        </mxCell>
        <mxCell id="JNLqS4MpjRsyl0XClgtZ-6" value="Elektronizačný model VS&lt;div&gt;(MetaIS)&lt;br&gt;&lt;/div&gt;" style="rounded=0;whiteSpace=wrap;html=1;" parent="1" vertex="1">
          <mxGeometry x="520" y="1520" width="120" height="60" as="geometry" />
        </mxCell>
        <mxCell id="JNLqS4MpjRsyl0XClgtZ-7" style="edgeStyle=orthogonalEdgeStyle;rounded=0;orthogonalLoop=1;jettySize=auto;html=1;" parent="1" source="JNLqS4MpjRsyl0XClgtZ-8" target="JNLqS4MpjRsyl0XClgtZ-12" edge="1">
          <mxGeometry relative="1" as="geometry" />
        </mxCell>
        <mxCell id="JNLqS4MpjRsyl0XClgtZ-8" value="Reg Kompetencii" style="rounded=0;whiteSpace=wrap;html=1;" parent="1" vertex="1">
          <mxGeometry x="320" y="1630" width="120" height="60" as="geometry" />
        </mxCell>
        <mxCell id="JNLqS4MpjRsyl0XClgtZ-9" style="edgeStyle=orthogonalEdgeStyle;rounded=0;orthogonalLoop=1;jettySize=auto;html=1;entryX=0;entryY=0.75;entryDx=0;entryDy=0;" parent="1" source="JNLqS4MpjRsyl0XClgtZ-12" target="JNLqS4MpjRsyl0XClgtZ-17" edge="1">
          <mxGeometry relative="1" as="geometry" />
        </mxCell>
        <mxCell id="JNLqS4MpjRsyl0XClgtZ-10" style="edgeStyle=orthogonalEdgeStyle;rounded=0;orthogonalLoop=1;jettySize=auto;html=1;" parent="1" source="JNLqS4MpjRsyl0XClgtZ-12" target="JNLqS4MpjRsyl0XClgtZ-18" edge="1">
          <mxGeometry relative="1" as="geometry" />
        </mxCell>
        <mxCell id="JNLqS4MpjRsyl0XClgtZ-11" style="edgeStyle=orthogonalEdgeStyle;rounded=0;orthogonalLoop=1;jettySize=auto;html=1;entryX=0;entryY=0.5;entryDx=0;entryDy=0;" parent="1" source="JNLqS4MpjRsyl0XClgtZ-12" target="JNLqS4MpjRsyl0XClgtZ-19" edge="1">
          <mxGeometry relative="1" as="geometry" />
        </mxCell>
        <mxCell id="JNLqS4MpjRsyl0XClgtZ-12" value="Reg Oprávnení" style="rounded=0;whiteSpace=wrap;html=1;fillColor=#FFC800;strokeColor=#000000;" parent="1" vertex="1">
          <mxGeometry x="320" y="1730" width="120" height="60" as="geometry" />
        </mxCell>
        <mxCell id="JNLqS4MpjRsyl0XClgtZ-13" style="edgeStyle=orthogonalEdgeStyle;rounded=0;orthogonalLoop=1;jettySize=auto;html=1;" parent="1" source="JNLqS4MpjRsyl0XClgtZ-14" target="JNLqS4MpjRsyl0XClgtZ-12" edge="1">
          <mxGeometry relative="1" as="geometry" />
        </mxCell>
        <mxCell id="JNLqS4MpjRsyl0XClgtZ-14" value="Reg zastupovani" style="rounded=0;whiteSpace=wrap;html=1;" parent="1" vertex="1">
          <mxGeometry x="140" y="1730" width="120" height="60" as="geometry" />
        </mxCell>
        <mxCell id="JNLqS4MpjRsyl0XClgtZ-15" style="edgeStyle=orthogonalEdgeStyle;rounded=0;orthogonalLoop=1;jettySize=auto;html=1;" parent="1" source="JNLqS4MpjRsyl0XClgtZ-16" target="JNLqS4MpjRsyl0XClgtZ-12" edge="1">
          <mxGeometry relative="1" as="geometry" />
        </mxCell>
        <mxCell id="JNLqS4MpjRsyl0XClgtZ-16" value="Reg rozhodnuti" style="rounded=0;whiteSpace=wrap;html=1;" parent="1" vertex="1">
          <mxGeometry x="140" y="1810" width="120" height="60" as="geometry" />
        </mxCell>
        <mxCell id="JNLqS4MpjRsyl0XClgtZ-17" value="CSRU" style="rounded=0;whiteSpace=wrap;html=1;" parent="1" vertex="1">
          <mxGeometry x="510" y="1650" width="120" height="60" as="geometry" />
        </mxCell>
        <mxCell id="JNLqS4MpjRsyl0XClgtZ-18" value="OverSi" style="rounded=0;whiteSpace=wrap;html=1;" parent="1" vertex="1">
          <mxGeometry x="510" y="1730" width="120" height="60" as="geometry" />
        </mxCell>
        <mxCell id="JNLqS4MpjRsyl0XClgtZ-19" value="CAMP" style="rounded=0;whiteSpace=wrap;html=1;" parent="1" vertex="1">
          <mxGeometry x="510" y="1810" width="120" height="60" as="geometry" />
        </mxCell>
        <mxCell id="JNLqS4MpjRsyl0XClgtZ-20" value="UPVS" style="rounded=0;whiteSpace=wrap;html=1;" parent="1" vertex="1">
          <mxGeometry x="130" y="1520" width="120" height="60" as="geometry" />
        </mxCell>
      </root>
    </mxGraphModel>
  </diagram>
</mxfile>
